# xmcd
#
# Track frame offsets:
# 150
# 4635
# 27800
# 46175
# 70615
# 88852
# 109262
# 132985
# 154480
# 168507
#
# Disc length: 2516 seconds
#
# Revision: 0
# Processed by: cddbd v1.5.2PL0 Copyright (c) Steve Scherf et al.
# Submitted via: Axialis_AX_CDPlayer 2.6
#
DISCID=7b09d20a
DTITLE=Gregor Hilden - Guitar De Luxe
DYEAR=2006
DGENRE=Electric Blues
TTITLE0=Intro
TTITLE1=Crazy 'bout my baby
TTITLE2=Slabo days
TTITLE3=Impressions
TTITLE4=Rockin' the night
TTITLE5=Trust me
TTITLE6=Goodbye pork pie hat
TTITLE7=Freeway jam
TTITLE8=Who's been talkin'
TTITLE9=Radio Memphis
EXTD=
EXTT0=
EXTT1=
EXTT2=
EXTT3=
EXTT4=
EXTT5=
EXTT6=
EXTT7=
EXTT8=
EXTT9=
PLAYORDER=
